<svg width="242" height="45" viewBox="0 0 242 45" fill="none" xmlns="http://www.w3.org/2000/svg">
<g clip-path="url(#clip0_10_640)">
<rect y="0.705658" width="44.1627" height="44.1627" rx="22.0814" fill="#9380E6"/>
<g clip-path="url(#clip1_10_640)">
<path d="M17.6903 42.9065H26.0668V40.8893H17.6903V42.9065Z" fill="#C8B58A"/>
<path d="M34.0834 13.3392H12.4999V36.4834H34.0834V13.3392Z" fill="#C8B58A"/>
<path d="M40.3016 26.0261H42.2544V15.5687H40.3016V26.0261Z" fill="#FECF85"/>
<path d="M40.3015 32.3961V30.3789H32.1306V32.3961H40.3015Z" fill="#74372A"/>
<path d="M42.2543 30.3789H40.3015V32.3961H42.2543V30.3789Z" fill="#FD6502"/>
<path d="M32.1308 19.6561H29.921V21.7794H32.1308V19.6561Z" fill="#E9C1C2"/>
<path d="M21.6986 19.6561H19.6431V21.7794H21.6986V19.6561Z" fill="#E9C1C2"/>
<path fill-rule="evenodd" clip-rule="evenodd" d="M13.4763 38.8722H15.4291V40.8893H13.4763V38.8722ZM17.6902 42.9065V40.8893H15.4291V42.9065H17.6902ZM17.6902 42.9065V44.9236H19.7458V42.9065H17.6902Z" fill="#C3C1C3"/>
<path d="M19.746 42.9065V44.9237H26.0669V42.9065H19.746Z" fill="#2D2443"/>
<path fill-rule="evenodd" clip-rule="evenodd" d="M13.4763 40.8893V42.9065V44.9237H17.6902V42.9065H15.4291V40.8893H13.4763Z" fill="#2D2443"/>
<path fill-rule="evenodd" clip-rule="evenodd" d="M9.5708 5.00516V7.02232V13.3392V15.3564V17.3735V19.4438V21.6202H11.5236V19.4438H13.6306V17.3735H15.6861V15.3564H19.6431V13.3392H30.1779H32.1307V9.19872H30.1779V7.0754V7.02232V5.00516H26.1182V7.02232H13.7333V5.00516H9.5708Z" fill="#2D2443"/>
<path fill-rule="evenodd" clip-rule="evenodd" d="M13.7334 2.98798V5.00513H9.57084V2.98798L13.7334 2.98798ZM9.57084 21.5671H7.61804V5.00513H9.57084V21.5671ZM11.5236 30.0604H9.57084V21.5671H11.5236V30.0604ZM11.5236 30.0604H13.4764V44.9236H11.5236V30.0604ZM26.1182 5.00513H13.7334V7.02229H26.1182V5.00513ZM30.178 5.00513H26.1182V2.98798L30.178 2.98798V5.00513ZM32.1308 9.1987V5.00513H30.178V9.1987H32.1308ZM34.0836 23.7966H32.1308V9.1987H34.0836V23.7966ZM42.2545 30.3789V28.3617H36.0364V23.7966H34.0836V28.3617H32.1308V26.3445H25.8613V28.3617H28.0196V30.3789H25.8613V32.396H21.6987V30.3789H19.7459V32.396H21.6987V34.4132H25.8613V32.396H32.1308V34.4132V36.4303H21.6987V38.4475H28.0196V40.5708H26.0668V44.9236H28.0196V42.8003H29.9724V38.4475H32.1308V36.4834H34.0836V34.4132H42.2545V32.396H44.2073V30.3789H42.2545ZM32.1308 30.3789H29.9724V28.3617H32.1308V30.3789ZM32.1308 30.3789H42.2545V32.396H32.1308V30.3789ZM27.9682 19.6561H29.921V21.7794H27.9682V19.6561ZM19.6432 19.6561H17.639V21.7794H19.6432V19.6561Z" fill="black"/>
<path d="M21.6986 17.6389H17.5874V19.6561H21.6986V17.6389Z" fill="#795F3A"/>
<path d="M32.1307 17.6389H27.9681V19.6561H32.1307V17.6389Z" fill="#795F3A"/>
<path d="M32.1308 21.7794H29.921V23.7966H32.1308V21.7794Z" fill="#795F3A"/>
<path d="M19.8485 34.4663H17.6902V36.4834H19.8485V34.4663Z" fill="#795F3A"/>
<path d="M21.6987 36.4304H19.8486V38.4475H21.6987V36.4304Z" fill="#795F3A"/>
<path fill-rule="evenodd" clip-rule="evenodd" d="M25.8611 19.6561V13.3392H23.9084V19.6561H21.6986V21.7794V24.062H24.0111V26.3446H29.9209V24.062H27.6084V21.7794H25.8611V19.7623V19.6561Z" fill="#A18657"/>
<path fill-rule="evenodd" clip-rule="evenodd" d="M17.6388 15.3564V19.6561H15.686V23.5312H13.6304V28.6802H15.429V30.6974H17.6902V36.4835H19.8485V38.4475H28.0194V40.8894H19.8485H17.6902H15.429V38.8722H13.4762V30.0604H11.5234V19.4438H13.6304V17.3735H15.686V15.3564H17.6388Z" fill="#A18657"/>
</g>
</g>
<path d="M60.6152 32.7365C59.2472 32.7365 58.0232 32.5025 56.9432 32.0345C55.8812 31.5665 55.0352 30.8825 54.4052 29.9825C53.7932 29.0825 53.4782 27.9935 53.4602 26.7155H57.3212C57.3392 27.2735 57.4832 27.7775 57.7532 28.2275C58.0232 28.6775 58.3922 29.0375 58.8602 29.3075C59.3462 29.5595 59.9222 29.6855 60.5882 29.6855C61.1642 29.6855 61.6592 29.5955 62.0732 29.4155C62.5052 29.2175 62.8382 28.9475 63.0722 28.6055C63.3062 28.2635 63.4232 27.8585 63.4232 27.3905C63.4232 26.8505 63.2882 26.4005 63.0182 26.0405C62.7662 25.6805 62.4062 25.3745 61.9382 25.1225C61.4882 24.8705 60.9572 24.6455 60.3452 24.4475C59.7512 24.2315 59.1212 24.0065 58.4552 23.7725C56.9612 23.2865 55.8182 22.6385 55.0262 21.8285C54.2522 21.0185 53.8652 19.9475 53.8652 18.6155C53.8652 17.4815 54.1352 16.5095 54.6752 15.6995C55.2332 14.8895 55.9982 14.2685 56.9702 13.8365C57.9422 13.4045 59.0492 13.1885 60.2912 13.1885C61.5692 13.1885 62.6852 13.4135 63.6392 13.8635C64.6112 14.2955 65.3762 14.9255 65.9342 15.7535C66.5102 16.5815 66.8072 17.5535 66.8252 18.6695H62.9372C62.9192 18.2555 62.7932 17.8685 62.5592 17.5085C62.3432 17.1305 62.0372 16.8335 61.6412 16.6175C61.2452 16.3835 60.7772 16.2665 60.2372 16.2665C59.7692 16.2485 59.3372 16.3205 58.9412 16.4825C58.5632 16.6445 58.2572 16.8875 58.0232 17.2115C57.8072 17.5175 57.6992 17.9045 57.6992 18.3725C57.6992 18.8225 57.8072 19.2005 58.0232 19.5065C58.2572 19.8125 58.5722 20.0825 58.9682 20.3165C59.3642 20.5325 59.8322 20.7395 60.3722 20.9375C60.9122 21.1175 61.4972 21.3065 62.1272 21.5045C63.0632 21.8285 63.9272 22.2155 64.7192 22.6655C65.5112 23.0975 66.1412 23.6645 66.6092 24.3665C67.0772 25.0685 67.3112 25.9955 67.3112 27.1475C67.3112 28.1375 67.0502 29.0555 66.5282 29.9015C66.0062 30.7475 65.2502 31.4315 64.2602 31.9535C63.2882 32.4755 62.0732 32.7365 60.6152 32.7365Z" fill="#0F0F0F"/>
<path d="M76.4511 32.4125C75.4971 32.4125 74.6601 32.2685 73.9401 31.9805C73.2381 31.6745 72.6891 31.1795 72.2931 30.4955C71.8971 29.7935 71.6991 28.8395 71.6991 27.6335V21.8555H69.3771V18.8045H71.6991L72.1041 15.1055H75.3441V18.8045H78.9351V21.8555H75.3441V27.6875C75.3441 28.2995 75.4791 28.7225 75.7491 28.9565C76.0191 29.1905 76.4781 29.3075 77.1261 29.3075H78.9081V32.4125H76.4511Z" fill="#0F0F0F"/>
<path d="M86.5928 32.7365C85.4588 32.7365 84.5228 32.5565 83.7848 32.1965C83.0468 31.8185 82.4978 31.3235 82.1378 30.7115C81.7958 30.0815 81.6248 29.3885 81.6248 28.6325C81.6248 27.8045 81.8318 27.0755 82.2458 26.4455C82.6778 25.8155 83.3168 25.3205 84.1628 24.9605C85.0268 24.6005 86.1068 24.4205 87.4028 24.4205H90.7778C90.7778 23.7545 90.6878 23.2055 90.5078 22.7735C90.3278 22.3235 90.0488 21.9905 89.6708 21.7745C89.2928 21.5585 88.7888 21.4505 88.1588 21.4505C87.4748 21.4505 86.8898 21.6035 86.4038 21.9095C85.9358 22.1975 85.6478 22.6475 85.5398 23.2595H82.0028C82.0928 22.2875 82.4078 21.4505 82.9478 20.7485C83.5058 20.0285 84.2348 19.4705 85.1348 19.0745C86.0528 18.6785 87.0698 18.4805 88.1858 18.4805C89.4638 18.4805 90.5708 18.6965 91.5068 19.1285C92.4428 19.5605 93.1628 20.1815 93.6668 20.9915C94.1708 21.8015 94.4228 22.8005 94.4228 23.9885V32.4125H91.3448L90.9398 30.3335C90.7418 30.6935 90.5078 31.0175 90.2378 31.3055C89.9678 31.5935 89.6528 31.8455 89.2928 32.0615C88.9328 32.2775 88.5278 32.4395 88.0778 32.5475C87.6278 32.6735 87.1328 32.7365 86.5928 32.7365ZM87.4568 29.9285C87.9248 29.9285 88.3388 29.8475 88.6988 29.6855C89.0768 29.5055 89.4008 29.2715 89.6708 28.9835C89.9408 28.6775 90.1478 28.3355 90.2918 27.9575C90.4538 27.5615 90.5618 27.1385 90.6158 26.6885V26.6615H87.8348C87.2768 26.6615 86.8178 26.7335 86.4578 26.8775C86.1158 27.0035 85.8638 27.1925 85.7018 27.4445C85.5398 27.6965 85.4588 27.9845 85.4588 28.3085C85.4588 28.6685 85.5398 28.9655 85.7018 29.1995C85.8638 29.4335 86.0978 29.6135 86.4038 29.7395C86.7098 29.8655 87.0608 29.9285 87.4568 29.9285Z" fill="#0F0F0F"/>
<path d="M106.733 32.4125L100.928 24.9605L106.139 18.8045H110.432L103.709 26.4995V23.6105L111.269 32.4125H106.733ZM97.8231 32.4125V12.9725H101.468V32.4125H97.8231Z" fill="#0F0F0F"/>
<path d="M118.833 32.7365C117.465 32.7365 116.25 32.4485 115.188 31.8725C114.144 31.2785 113.325 30.4595 112.731 29.4155C112.155 28.3535 111.867 27.1295 111.867 25.7435C111.867 24.3215 112.155 23.0705 112.731 21.9905C113.325 20.8925 114.144 20.0375 115.188 19.4255C116.232 18.7955 117.447 18.4805 118.833 18.4805C120.183 18.4805 121.362 18.7775 122.37 19.3715C123.378 19.9655 124.161 20.7665 124.719 21.7745C125.277 22.7825 125.556 23.9255 125.556 25.2035C125.556 25.3835 125.556 25.5905 125.556 25.8245C125.556 26.0405 125.538 26.2655 125.502 26.4995H114.459V24.2855H121.884C121.83 23.4035 121.515 22.7105 120.939 22.2065C120.381 21.7025 119.679 21.4505 118.833 21.4505C118.221 21.4505 117.654 21.5945 117.132 21.8825C116.61 22.1525 116.196 22.5755 115.89 23.1515C115.602 23.7275 115.458 24.4565 115.458 25.3385V26.1215C115.458 26.8595 115.593 27.5075 115.863 28.0655C116.151 28.6055 116.547 29.0285 117.051 29.3345C117.555 29.6225 118.14 29.7665 118.806 29.7665C119.472 29.7665 120.021 29.6225 120.453 29.3345C120.903 29.0465 121.236 28.6775 121.452 28.2275H125.178C124.926 29.0735 124.503 29.8385 123.909 30.5225C123.315 31.2065 122.586 31.7465 121.722 32.1425C120.858 32.5385 119.895 32.7365 118.833 32.7365Z" fill="#0F0F0F"/>
<path d="M135.129 32.7365C133.761 32.7365 132.546 32.4305 131.484 31.8185C130.422 31.2065 129.594 30.3695 129 29.3075C128.406 28.2455 128.109 27.0305 128.109 25.6625C128.109 24.2585 128.406 23.0255 129 21.9635C129.594 20.8835 130.422 20.0375 131.484 19.4255C132.546 18.7955 133.761 18.4805 135.129 18.4805C136.875 18.4805 138.342 18.9395 139.53 19.8575C140.718 20.7755 141.474 22.0355 141.798 23.6375H137.937C137.775 23.0075 137.433 22.5125 136.911 22.1525C136.407 21.7925 135.804 21.6125 135.102 21.6125C134.472 21.6125 133.905 21.7745 133.401 22.0985C132.915 22.4045 132.528 22.8635 132.24 23.4755C131.97 24.0695 131.835 24.7805 131.835 25.6085C131.835 26.2385 131.916 26.8055 132.078 27.3095C132.24 27.7955 132.465 28.2185 132.753 28.5785C133.041 28.9205 133.383 29.1815 133.779 29.3615C134.193 29.5415 134.634 29.6315 135.102 29.6315C135.57 29.6315 135.993 29.5505 136.371 29.3885C136.767 29.2265 137.1 29.0015 137.37 28.7135C137.64 28.4075 137.829 28.0385 137.937 27.6065H141.798C141.474 29.1725 140.709 30.4235 139.503 31.3595C138.315 32.2775 136.857 32.7365 135.129 32.7365Z" fill="#0F0F0F"/>
<path d="M145.022 32.4125V18.8045H148.667V32.4125H145.022ZM146.858 16.9415C146.21 16.9415 145.67 16.7525 145.238 16.3745C144.824 15.9785 144.617 15.4835 144.617 14.8895C144.617 14.2955 144.824 13.8095 145.238 13.4315C145.67 13.0355 146.21 12.8375 146.858 12.8375C147.524 12.8375 148.064 13.0355 148.478 13.4315C148.91 13.8095 149.126 14.2955 149.126 14.8895C149.126 15.4835 148.91 15.9785 148.478 16.3745C148.064 16.7525 147.524 16.9415 146.858 16.9415Z" fill="#0F0F0F"/>
<path d="M158.479 32.4125C157.525 32.4125 156.688 32.2685 155.968 31.9805C155.266 31.6745 154.717 31.1795 154.321 30.4955C153.925 29.7935 153.727 28.8395 153.727 27.6335V21.8555H151.405V18.8045H153.727L154.132 15.1055H157.372V18.8045H160.963V21.8555H157.372V27.6875C157.372 28.2995 157.507 28.7225 157.777 28.9565C158.047 29.1905 158.506 29.3075 159.154 29.3075H160.936V32.4125H158.479Z" fill="#0F0F0F"/>
<path d="M170.114 32.7365C168.818 32.7365 167.648 32.4395 166.604 31.8455C165.578 31.2335 164.759 30.3965 164.147 29.3345C163.553 28.2545 163.256 27.0215 163.256 25.6355C163.256 24.2135 163.553 22.9715 164.147 21.9095C164.759 20.8295 165.587 19.9925 166.631 19.3985C167.675 18.7865 168.845 18.4805 170.141 18.4805C171.455 18.4805 172.625 18.7865 173.651 19.3985C174.695 19.9925 175.514 20.8295 176.108 21.9095C176.72 22.9715 177.026 24.2045 177.026 25.6085C177.026 27.0125 176.72 28.2545 176.108 29.3345C175.514 30.3965 174.695 31.2335 173.651 31.8455C172.607 32.4395 171.428 32.7365 170.114 32.7365ZM170.114 29.5775C170.726 29.5775 171.266 29.4335 171.734 29.1455C172.22 28.8575 172.598 28.4165 172.868 27.8225C173.156 27.2285 173.3 26.4905 173.3 25.6085C173.3 24.7265 173.156 23.9975 172.868 23.4215C172.598 22.8275 172.22 22.3865 171.734 22.0985C171.266 21.7925 170.735 21.6395 170.141 21.6395C169.565 21.6395 169.034 21.7925 168.548 22.0985C168.062 22.3865 167.675 22.8275 167.387 23.4215C167.117 23.9975 166.982 24.7265 166.982 25.6085C166.982 26.4905 167.117 27.2285 167.387 27.8225C167.675 28.4165 168.053 28.8575 168.521 29.1455C169.007 29.4335 169.538 29.5775 170.114 29.5775Z" fill="#0F0F0F"/>
<path d="M181.815 32.5475C181.131 32.5475 180.582 32.3495 180.168 31.9535C179.754 31.5395 179.547 31.0355 179.547 30.4415C179.547 29.8475 179.754 29.3525 180.168 28.9565C180.582 28.5425 181.131 28.3355 181.815 28.3355C182.463 28.3355 182.994 28.5425 183.408 28.9565C183.822 29.3525 184.029 29.8475 184.029 30.4415C184.029 31.0355 183.822 31.5395 183.408 31.9535C182.994 32.3495 182.463 32.5475 181.815 32.5475Z" fill="#0F0F0F"/>
<path d="M193.559 32.7365C192.191 32.7365 190.976 32.4305 189.914 31.8185C188.852 31.2065 188.024 30.3695 187.43 29.3075C186.836 28.2455 186.539 27.0305 186.539 25.6625C186.539 24.2585 186.836 23.0255 187.43 21.9635C188.024 20.8835 188.852 20.0375 189.914 19.4255C190.976 18.7955 192.191 18.4805 193.559 18.4805C195.305 18.4805 196.772 18.9395 197.96 19.8575C199.148 20.7755 199.904 22.0355 200.228 23.6375H196.367C196.205 23.0075 195.863 22.5125 195.341 22.1525C194.837 21.7925 194.234 21.6125 193.532 21.6125C192.902 21.6125 192.335 21.7745 191.831 22.0985C191.345 22.4045 190.958 22.8635 190.67 23.4755C190.4 24.0695 190.265 24.7805 190.265 25.6085C190.265 26.2385 190.346 26.8055 190.508 27.3095C190.67 27.7955 190.895 28.2185 191.183 28.5785C191.471 28.9205 191.813 29.1815 192.209 29.3615C192.623 29.5415 193.064 29.6315 193.532 29.6315C194 29.6315 194.423 29.5505 194.801 29.3885C195.197 29.2265 195.53 29.0015 195.8 28.7135C196.07 28.4075 196.259 28.0385 196.367 27.6065H200.228C199.904 29.1725 199.139 30.4235 197.933 31.3595C196.745 32.2775 195.287 32.7365 193.559 32.7365Z" fill="#0F0F0F"/>
<path d="M209.797 32.7365C208.501 32.7365 207.331 32.4395 206.287 31.8455C205.261 31.2335 204.442 30.3965 203.83 29.3345C203.236 28.2545 202.939 27.0215 202.939 25.6355C202.939 24.2135 203.236 22.9715 203.83 21.9095C204.442 20.8295 205.27 19.9925 206.314 19.3985C207.358 18.7865 208.528 18.4805 209.824 18.4805C211.138 18.4805 212.308 18.7865 213.334 19.3985C214.378 19.9925 215.197 20.8295 215.791 21.9095C216.403 22.9715 216.709 24.2045 216.709 25.6085C216.709 27.0125 216.403 28.2545 215.791 29.3345C215.197 30.3965 214.378 31.2335 213.334 31.8455C212.29 32.4395 211.111 32.7365 209.797 32.7365ZM209.797 29.5775C210.409 29.5775 210.949 29.4335 211.417 29.1455C211.903 28.8575 212.281 28.4165 212.551 27.8225C212.839 27.2285 212.983 26.4905 212.983 25.6085C212.983 24.7265 212.839 23.9975 212.551 23.4215C212.281 22.8275 211.903 22.3865 211.417 22.0985C210.949 21.7925 210.418 21.6395 209.824 21.6395C209.248 21.6395 208.717 21.7925 208.231 22.0985C207.745 22.3865 207.358 22.8275 207.07 23.4215C206.8 23.9975 206.665 24.7265 206.665 25.6085C206.665 26.4905 206.8 27.2285 207.07 27.8225C207.358 28.4165 207.736 28.8575 208.204 29.1455C208.69 29.4335 209.221 29.5775 209.797 29.5775Z" fill="#0F0F0F"/>
<path d="M219.85 32.4125V18.8045H223.063L223.36 20.6135C223.792 19.9655 224.359 19.4525 225.061 19.0745C225.781 18.6785 226.6 18.4805 227.518 18.4805C228.202 18.4805 228.814 18.5705 229.354 18.7505C229.894 18.9305 230.371 19.1915 230.785 19.5335C231.217 19.8755 231.568 20.3075 231.838 20.8295C232.342 20.0915 232.999 19.5155 233.809 19.1015C234.619 18.6875 235.501 18.4805 236.455 18.4805C237.643 18.4805 238.633 18.7235 239.425 19.2095C240.217 19.6775 240.811 20.3615 241.207 21.2615C241.621 22.1615 241.828 23.2685 241.828 24.5825V32.4125H238.21V24.9065C238.21 23.8265 237.994 22.9985 237.562 22.4225C237.148 21.8465 236.5 21.5585 235.618 21.5585C235.042 21.5585 234.529 21.7025 234.079 21.9905C233.629 22.2785 233.278 22.6925 233.026 23.2325C232.792 23.7725 232.675 24.4205 232.675 25.1765V32.4125H229.03V24.9065C229.03 23.8265 228.814 22.9985 228.382 22.4225C227.95 21.8465 227.284 21.5585 226.384 21.5585C225.826 21.5585 225.322 21.7025 224.872 21.9905C224.44 22.2785 224.098 22.6925 223.846 23.2325C223.612 23.7725 223.495 24.4205 223.495 25.1765V32.4125H219.85Z" fill="#0F0F0F"/>
<defs>
<clipPath id="clip0_10_640">
<rect y="0.705658" width="44.1627" height="44.1627" rx="22.0814" fill="white"/>
</clipPath>
<clipPath id="clip1_10_640">
<rect width="36.5892" height="41.9356" fill="white" transform="translate(7.61804 2.98798)"/>
</clipPath>
</defs>
</svg>
