<svg width="162" height="162" viewBox="0 0 162 162" fill="none" xmlns="http://www.w3.org/2000/svg">
<g clip-path="url(#clip0_84_2620)">
<rect width="162" height="162" rx="81" fill="#9380E6"/>
<g clip-path="url(#clip1_84_2620)">
<path d="M64.8926 154.803H95.6196V147.404H64.8926V154.803Z" fill="#C8B58A"/>
<path d="M125.027 46.3428H45.853V131.242H125.027V46.3428Z" fill="#C8B58A"/>
<path d="M147.837 92.8813H155V54.5211H147.837V92.8813Z" fill="#FECF85"/>
<path d="M147.836 116.248V108.849H117.863V116.248H147.836Z" fill="#74372A"/>
<path d="M155 108.849H147.836V116.248H155V108.849Z" fill="#FD6502"/>
<path d="M117.864 69.5146H109.758V77.3035H117.864V69.5146Z" fill="#E9C1C2"/>
<path d="M79.596 69.5146H72.0557V77.3035H79.596V69.5146Z" fill="#E9C1C2"/>
<path fill-rule="evenodd" clip-rule="evenodd" d="M49.4351 140.004H56.5984V147.404H49.4351V140.004ZM64.8928 154.803V147.404H56.5984V154.803H64.8928ZM64.8928 154.803V162.203H72.4332V154.803H64.8928Z" fill="#C3C1C3"/>
<path d="M72.4331 154.803V162.203H95.6197V154.803H72.4331Z" fill="#2D2443"/>
<path fill-rule="evenodd" clip-rule="evenodd" d="M49.4351 147.404V154.803V162.203H64.8928V154.803H56.5984V147.404H49.4351Z" fill="#2D2443"/>
<path fill-rule="evenodd" clip-rule="evenodd" d="M35.1079 15.7715V23.1709V46.3428V53.7423V61.1417V68.7359V76.7195H42.2713V68.7359H50.0001V61.1417H57.5405V53.7423H72.0557V46.3428H110.7H117.863V31.1545H110.7V23.3656V23.1709V15.7715H95.8078V23.1709H50.3771V15.7715H35.1079Z" fill="#2D2443"/>
<path fill-rule="evenodd" clip-rule="evenodd" d="M50.3774 8.37207V15.7715H35.1082V8.37207L50.3774 8.37207ZM35.1082 76.5248H27.9448V15.7715H35.1082V76.5248ZM42.2715 107.68H35.1082V76.5248H42.2715V107.68ZM42.2715 107.68H49.4349V162.203H42.2715V107.68ZM95.8081 15.7715H50.3774V23.1709H95.8081V15.7715ZM110.7 15.7715H95.8081V8.37207L110.7 8.37207V15.7715ZM117.864 31.1546V15.7715H110.7V31.1546H117.864ZM125.027 84.7031H117.864V31.1546H125.027V84.7031ZM155 108.849V101.449H132.19V84.7031H125.027V101.449H117.864V94.0498H94.8656V101.449H102.783V108.849H94.8656V116.248H79.5963V108.849H72.433V116.248H79.5963V123.648H94.8656V116.248H117.864V123.648V131.047H79.5963V138.446H102.783V146.235H95.6196V162.203H102.783V154.414H109.946V138.446H117.864V131.242H125.027V123.648H155V116.248H162.163V108.849H155ZM117.864 108.849H109.946V101.449H117.864V108.849ZM117.864 108.849H155V116.248H117.864V108.849ZM102.594 69.5148H109.758V77.3037H102.594V69.5148ZM72.056 69.5148H64.7041V77.3037H72.056V69.5148Z" fill="black"/>
<path d="M79.5963 62.1152H64.5156V69.5147H79.5963V62.1152Z" fill="#795F3A"/>
<path d="M117.863 62.1152H102.594V69.5147H117.863V62.1152Z" fill="#795F3A"/>
<path d="M117.864 77.3037H109.758V84.7031H117.864V77.3037Z" fill="#795F3A"/>
<path d="M72.81 123.842H64.8926V131.242H72.81V123.842Z" fill="#795F3A"/>
<path d="M79.5964 131.047H72.8101V138.446H79.5964V131.047Z" fill="#795F3A"/>
<path fill-rule="evenodd" clip-rule="evenodd" d="M94.8654 69.5147V46.3428H87.7021V69.5147H79.5962V77.3036V85.6766H88.0791V94.0497H109.758V85.6766H101.275V77.3036H94.8654V69.9041V69.5147Z" fill="#A18657"/>
<path fill-rule="evenodd" clip-rule="evenodd" d="M64.7041 53.7422V69.5147H57.5407V83.7294H50.0004V102.617H56.5982V110.017H64.8926V131.242H72.81V138.446H102.783V147.404H72.81H64.8926H56.5982V140.004H49.4348V107.68H42.2715V68.7358H50.0004V61.1416H57.5407V53.7422H64.7041Z" fill="#A18657"/>
</g>
</g>
<defs>
<clipPath id="clip0_84_2620">
<rect width="162" height="162" rx="81" fill="white"/>
</clipPath>
<clipPath id="clip1_84_2620">
<rect width="134.218" height="153.83" fill="white" transform="translate(27.9448 8.37207)"/>
</clipPath>
</defs>
</svg>
